
<svg width="20px" height="20px" viewBox="0 0 20 20" version="1.1" xmlns="http://www.w3.org/2000/svg" xmlns:xlink="http://www.w3.org/1999/xlink">
    <defs>
        <path d="M5.41979388,18.5802061 C5.78904285,18.9494551 6.38930914,18.9494551 6.75855811,18.5802061 L12,13.3387642 L17.2414419,18.5802061 C17.6106909,18.9494551 18.2109571,18.9494551 18.5802061,18.5802061 C18.9494551,18.2109571 18.9494551,17.6106909 18.5802061,17.2414419 L13.3387642,12 L18.5802061,6.75855811 C18.9494551,6.38930914 18.9494551,5.78904285 18.5802061,5.41979388 C18.2109571,5.0505449 17.6106909,5.0505449 17.2414419,5.41979388 L12,10.6612358 L6.75855811,5.41979388 C6.38930914,5.0505449 5.78904285,5.0505449 5.41979388,5.41979388 C5.0505449,5.78904285 5.0505449,6.38930914 5.41979388,6.75855811 L10.6612358,12 L5.41979388,17.2414419 C5.0505449,17.6106909 5.0505449,18.2109571 5.41979388,18.5802061 Z" id="path-1"></path>
    </defs>
    <g id="Zingo-Social-UI-Kit" stroke="none" stroke-width="1" fill="none" fill-rule="evenodd">
        <g id="10_Home-4" transform="translate(-332.000000, -56.000000)">
            <g id="Nav-bar">
                <g id="Group-4" transform="translate(14.000000, 48.000000)">
                    <g id="_Icons-/-Plus" transform="translate(316.000000, 6.000000)">
                        <mask id="mask-2" fill="white">
                            <use xlink:href="#path-1"></use>
                        </mask>
                        <use id="Plus" fill="#FFFFFF" fill-rule="evenodd" transform="translate(12.000000, 12.000000) rotate(-315.000000) translate(-12.000000, -12.000000) " xlink:href="#path-1"></use>
                    </g>
                </g>
            </g>
        </g>
    </g>
</svg>